<?xml version="1.0" encoding="utf-8"?>
<svg xmlns="http://www.w3.org/2000/svg" width="2707" height="601" viewBox="0 0 2707 601">
  <rect x="600" y="25" width="2080" height="551" fill="rgb(255, 255, 255)"/>
  <path d="M 0,0 H 2707 V 601 H 0 Z M 600,25 V 576 H 2680 V 25 Z" fill="rgb(35, 41, 50)" fill-rule="evenodd"/>
  <g transform="matrix(1, -0.001411, 0, 1, -11.930904, 8.676518)">
    <path d="M 404.191 364.708 L 404.441 245.578 L 451.941 219.638 C 482.001 203.218 501.221 193.298 504.271 192.638 C 515.871 190.118 524.581 195.388 528.481 207.298 C 530.371 213.058 530.441 216.548 530.441 299.788 C 530.441 303.718 530.441 307.488 530.441 311.098 C 530.451 379.438 530.451 390.458 526.681 399.978 C 525.761 402.308 524.611 404.548 523.181 407.528 C 517.381 419.588 510.601 425.978 493.831 435.218 C 479.671 443.018 412.061 479.638 406.691 482.418 L 403.931 483.848 L 404.191 364.708 Z M 462.631 408.638 C 484.721 397.088 487.721 394.478 490.961 383.978 C 492.831 377.918 492.941 374.518 492.941 320.148 C 492.941 257.908 492.931 257.798 487.501 254.238 C 483.451 251.588 479.941 252.748 459.631 263.448 L 440.941 273.288 L 440.941 346.038 C 440.941 399.758 441.241 418.788 442.081 418.788 C 442.701 418.788 451.951 414.218 462.631 408.638 Z" fill="rgb(255, 255, 255)"/>
    <path d="M 275.191 512.098 L 246.941 495.578 L 246.941 446.618 L 251.191 449.018 C 253.531 450.338 266.671 458.058 280.401 466.168 L 305.351 480.908 L 326.901 470.458 C 342.191 463.048 348.801 459.338 349.681 457.658 C 350.971 455.178 351.531 423.478 350.331 420.368 C 349.191 417.388 344.881 418.808 325.041 428.738 L 305.171 438.678 L 304.551 435.608 C 304.221 433.918 303.941 423.248 303.941 411.888 L 303.941 391.248 L 322.081 382.268 C 332.061 377.328 341.941 372.058 344.031 370.568 C 349.451 366.698 350.941 361.008 350.931 344.358 C 350.911 330.758 350.411 326.788 348.691 326.788 C 348.131 326.788 338.051 332.018 326.301 338.398 L 304.931 350.008 L 275.681 333.768 C 259.601 324.838 245.881 317.078 245.191 316.538 C 243.571 315.248 243.361 268.788 244.981 268.788 C 246.461 268.788 251.511 271.448 276.491 285.358 C 288.621 292.108 300.101 298.378 302.001 299.278 L 305.461 300.928 L 316.951 294.508 C 362.411 269.078 365.821 267.588 373.581 269.688 C 379.151 271.188 384.221 276.948 386.581 284.428 C 389.301 293.038 389.321 339.518 386.621 351.038 C 384.191 361.418 379.211 371.038 372.391 378.578 L 366.771 384.788 L 370.391 384.788 C 378.661 384.788 385.741 390.868 388.491 400.318 C 389.851 404.988 390.041 410.378 389.711 435.068 C 389.351 461.518 389.121 464.808 387.261 469.808 C 383.641 479.538 380.131 485.468 374.221 491.868 C 368.641 497.898 367.361 498.648 337.311 513.448 C 320.181 521.888 305.561 528.748 304.811 528.698 C 304.051 528.648 290.731 521.178 275.191 512.098 Z" fill="rgb(255, 255, 255)"/>
    <path d="M 204.441 481.448 C 200.321 480.088 168.041 463.498 115.191 435.578 L 84.941 419.598 L 84.941 304.618 C 84.941 213.128 85.201 189.708 86.191 189.968 C 86.881 190.138 107.241 200.348 131.441 212.648 C 206.921 251.008 206.761 250.908 215.981 264.048 C 225.801 278.018 227.941 287.828 227.941 318.808 C 227.941 343.378 227.141 349.848 223.301 356.528 C 220.301 361.758 216.571 363.788 210.001 363.788 L 204.951 363.788 L 210.901 369.828 C 218.271 377.308 222.971 384.938 226.581 395.298 C 229.321 403.138 229.381 403.788 229.761 430.288 C 230.171 459.408 229.411 467.558 225.641 474.218 C 224.431 476.348 222.241 478.988 220.761 480.088 C 217.421 482.558 209.771 483.198 204.441 481.448 Z M 188.491 421.318 C 190.191 417.238 190.521 393.418 188.951 387.758 C 188.411 385.828 186.731 382.288 185.211 379.918 C 182.651 375.918 180.271 374.458 153.941 360.728 C 138.271 352.548 125.101 345.848 124.691 345.828 C 124.281 345.808 123.941 357.008 123.941 370.708 L 123.941 395.638 L 152.191 410.178 C 183.731 426.408 186.061 427.128 188.491 421.318 Z M 186.381 327.568 C 187.621 325.798 187.941 322.358 187.931 310.818 C 187.921 297.668 187.701 295.818 185.571 291.288 C 184.281 288.538 182.371 285.548 181.331 284.658 C 178.581 282.268 126.241 254.788 124.461 254.788 C 124.171 254.788 123.941 265.358 123.941 278.288 L 123.941 301.778 L 151.691 315.728 C 166.951 323.398 180.651 329.708 182.131 329.738 C 183.831 329.768 185.411 328.958 186.381 327.568 Z M 297.441 280.108 C 293.231 277.928 251.881 255.368 193.941 223.638 C 140.551 194.398 109.941 177.308 109.941 176.758 C 109.941 176.398 114.101 173.818 119.191 171.028 C 124.281 168.238 143.741 157.518 162.441 147.198 C 181.141 136.888 202.741 124.998 210.441 120.758 C 218.141 116.528 233.211 108.218 243.941 102.288 C 288.591 77.628 303.221 69.788 304.601 69.788 C 305.411 69.788 313.801 74.008 323.251 79.168 C 348.541 92.978 452.211 148.678 487.741 167.548 C 493.411 170.558 497.901 173.168 497.721 173.348 C 497.541 173.528 486.601 179.698 473.421 187.068 C 460.231 194.438 443.591 203.748 436.441 207.758 C 409.381 222.938 404.061 225.788 402.771 225.768 C 400.931 225.748 367.611 208.308 367.231 207.168 C 367.061 206.658 377.501 200.208 390.431 192.838 C 403.361 185.458 413.941 179.158 413.941 178.828 C 413.941 178.508 408.651 175.358 402.191 171.848 C 386.521 163.328 343.571 139.808 322.391 128.168 C 313.011 123.008 305.011 118.788 304.601 118.788 C 304.201 118.788 294.321 124.028 282.651 130.428 C 270.991 136.828 249.061 148.798 233.941 157.028 C 193.391 179.088 193.681 178.928 194.591 179.828 C 195.061 180.298 206.241 186.598 219.441 193.838 C 232.641 201.088 255.141 213.448 269.441 221.308 C 283.741 229.158 305.271 240.988 317.291 247.588 C 329.311 254.188 339.581 260.028 340.121 260.568 C 340.771 261.218 338.421 263.018 333.271 265.818 C 328.971 268.158 320.411 272.938 314.261 276.438 C 308.111 279.928 302.941 282.768 302.761 282.738 C 302.581 282.718 300.191 281.528 297.441 280.108 Z" fill="rgb(250, 103, 8)"/>
  </g>
  <path d="M 713.23 470.32 L 713.23 126.57 L 850.73 126.57 L 850.73 193.56 L 782.38 193.56 L 782.38 248.25 L 847.22 248.25 L 847.22 314.46 L 782.38 314.46 L 782.38 470.32 L 713.23 470.32 Z M 872.8 470.32 L 872.8 126.57 L 978.27 126.57 C 995.85 126.57 1009.13 130.573 1018.12 138.58 C 1027.1 146.587 1033.12 157.787 1036.18 172.18 C 1039.24 186.567 1040.77 203.46 1040.77 222.86 C 1040.77 241.607 1038.39 256.58 1033.64 267.78 C 1028.89 278.98 1019.94 286.727 1006.79 291.02 C 1017.6 293.233 1025.18 298.607 1029.54 307.14 C 1033.91 315.667 1036.09 326.7 1036.09 340.24 L 1036.09 470.32 L 968.31 470.32 L 968.31 335.75 C 968.31 325.723 966.26 319.507 962.16 317.1 C 958.06 314.687 951.453 313.48 942.34 313.48 L 942.34 470.32 L 872.8 470.32 Z M 942.73 253.91 L 959.33 253.91 C 968.837 253.91 973.59 243.56 973.59 222.86 C 973.59 209.447 972.547 200.657 970.46 196.49 C 968.38 192.323 964.473 190.24 958.74 190.24 L 942.73 190.24 L 942.73 253.91 Z M 1054.05 470.32 L 1087.26 126.57 L 1203.86 126.57 L 1236.48 470.32 L 1171.44 470.32 L 1166.55 414.85 L 1125.15 414.85 L 1120.85 470.32 L 1054.05 470.32 Z M 1130.03 359.97 L 1161.28 359.97 L 1146.24 185.16 L 1143.12 185.16 L 1130.03 359.97 Z M 1257.57 470.32 L 1257.57 126.57 L 1362.26 126.57 L 1391.16 336.14 L 1419.88 126.57 L 1525.54 126.57 L 1525.54 470.32 L 1462.65 470.32 L 1462.65 222.66 L 1423.2 470.32 L 1361.48 470.32 L 1319.68 222.66 L 1319.68 470.32 L 1257.57 470.32 Z M 1556.01 470.32 L 1556.01 126.57 L 1693.51 126.57 L 1693.51 192.98 L 1625.93 192.98 L 1625.93 259.97 L 1690.77 259.97 L 1690.77 324.62 L 1625.93 324.62 L 1625.93 403.33 L 1698 403.33 L 1698 470.32 L 1556.01 470.32 Z M 1747.61 470.32 L 1710.7 126.57 L 1777.88 126.57 L 1796.83 343.56 L 1816.16 126.57 L 1880.23 126.57 L 1898.59 343.56 L 1916.95 126.57 L 1984.91 126.57 L 1947.41 470.32 L 1864.99 470.32 L 1847.8 304.89 L 1831.4 470.32 L 1747.61 470.32 Z M 2087.45 473.44 C 2059.98 473.44 2038.98 465.14 2024.46 448.54 C 2009.95 431.94 2002.69 407.95 2002.69 376.57 L 2002.69 213.29 C 2002.69 183.863 2009.88 161.533 2024.27 146.3 C 2038.66 131.06 2059.72 123.44 2087.45 123.44 C 2115.18 123.44 2136.25 131.06 2150.64 146.3 C 2165.03 161.533 2172.22 183.863 2172.22 213.29 L 2172.22 376.57 C 2172.22 407.95 2164.96 431.94 2150.44 448.54 C 2135.92 465.14 2114.92 473.44 2087.45 473.44 Z M 2088.04 410.16 C 2098.45 410.16 2103.66 400.07 2103.66 379.89 L 2103.66 212.12 C 2103.66 195.193 2098.58 186.73 2088.43 186.73 C 2076.97 186.73 2071.24 195.387 2071.24 212.7 L 2071.24 380.28 C 2071.24 390.96 2072.54 398.61 2075.15 403.23 C 2077.75 407.85 2082.05 410.16 2088.04 410.16 Z M 2199.95 470.32 L 2199.95 126.57 L 2305.42 126.57 C 2323 126.57 2336.28 130.573 2345.27 138.58 C 2354.25 146.587 2360.27 157.787 2363.33 172.18 C 2366.39 186.567 2367.92 203.46 2367.92 222.86 C 2367.92 241.607 2365.54 256.58 2360.79 267.78 C 2356.04 278.98 2347.09 286.727 2333.94 291.02 C 2344.75 293.233 2352.33 298.607 2356.69 307.14 C 2361.05 315.667 2363.23 326.7 2363.23 340.24 L 2363.23 470.32 L 2295.46 470.32 L 2295.46 335.75 C 2295.46 325.723 2293.41 319.507 2289.31 317.1 C 2285.21 314.687 2278.6 313.48 2269.48 313.48 L 2269.48 470.32 L 2199.95 470.32 Z M 2269.88 253.91 L 2286.48 253.91 C 2295.98 253.91 2300.73 243.56 2300.73 222.86 C 2300.73 209.447 2299.69 200.657 2297.61 196.49 C 2295.52 192.323 2291.62 190.24 2285.89 190.24 L 2269.88 190.24 L 2269.88 253.91 Z M 2390.58 470.32 L 2390.58 126.57 L 2458.55 126.57 L 2458.55 264.27 L 2490.58 126.57 L 2559.72 126.57 L 2521.24 283.99 L 2567.73 470.32 L 2496.44 470.32 L 2458.94 303.91 L 2458.94 470.32 L 2390.58 470.32 Z" fill="rgb(35, 41, 50)"/>
</svg>